<?xml version="1.0" encoding="UTF-8"?>
<!-- Created with Inkscape (http://www.inkscape.org/) -->
<svg width="600" height="600" version="1.1" viewBox="0 0 158.75 158.75" xmlns="http://www.w3.org/2000/svg">
 <path d="m29.41 4.1331v93.292h0.16226a51.646 56.013 0 0 0 51.618 54.162 51.646 56.013 0 0 0 51.534-54.162h0.01602v-0.26097a51.646 56.013 0 0 0 0.09612-1.5906 51.646 56.013 0 0 0-0.09612-3.4158v-88.025h-103.33z" fill="#580058" stroke="#0f0" stroke-width="1.028"/>
 <g transform="matrix(.016742 0 0 .020945 42.085 31.11)" fill="#0f0">
  <path d="m4305.7 1902.7c-4.4404-17.6-2.6768-15.722 26.435-233.87 4.9429-46.421 8.9512-44.907-27.221-83.258-88.167-89.283-24.62-25.591-301.99-302.12 79.138-100.94 235.63-260.32 242.22-274.25 8.9155-18.848-2.1289 8.1733 54.565-389.23 0.9253-8.2173 3.7686 4.3154-212.54-498-16.405-38.472-30.701-78.9-50.257-115.86l-810.89 519.19-898.45-220.23c-21.112-4.4588-121.6 24.986-151.2 31.964-733.17 176.5-765.91 188.92-774.14 186.89-1.5662-0.3864-769.96-510.98-798.54-523.98-15.909 26.97-4.2508 4.5818-210.19 508.4-61.686 147.78-45.26 95.955-38.925 160.87 27.342 266.74 20.983 204.86 30.09 293.04 5.7196 58.584-6.372 37.121 85.532 137.25 0.4928 0.5327 160.83 173.69 165.05 178.87-263.18 273.68-206.93 215.41-281.95 292.52-45.279 46.635-44.397 47.077-43.361 83.826 2.3877 85.522 30.267 224.59 26.733 248.84-8.1309 55.652-304.3 713.14-327.42 763.05-11.268 24.153-11.38 15.021-4.9228 30.776 86.604 194.53 376.71 772.84 540.12 1122.2l1775.6 1180.3c1724.5-1138 1405.3-925.63 1719.5-1139.7 77.752-53.963 41.927 1.7786 151.89-229.21 482.39-1025.1 434.62-914.2 446.57-949.1-351.72-819.67-328.76-765.02-332.34-779.22zm-37.034 181.84c9.2188 3.8438 220.38 501.07 220.61 501.61-37.004-33.642 10.269 6.2771-269.88-225.03 45.02-271.38 41.153-257.29 49.268-276.58zm-3111.6 80.049c92.584 93.318 284.37 73.626 399.33 72.952l178.2 2.0452c-305.9-78.001-593.27-125.72-625.01-441.85-1.1475-11.406-4.1014-27.354-1.2166-38.372 50.995 28.422 89.049 42.628 147.66 47.345 3.1071 226.23 182.57 347.35 396.22 314.18 27.397-4.2556 54.719-12.124 81.553-19.126l171.41 149.35c-12.788 10.875-35.828 17.165-51.404 23.216-91.786 35.66-96.574 44.627-377.68 102.68-48.328 9.9768-97.512 22.403-146.44 28.364-9.7584-6.665 6.3384 8.5959-231.8-225.42-105.15-120.03-243.03-263.65-296.13-386.57l115.95-199.74c135.98 127.12 144.99 134.43 148.33 141.68 7.5182 16.418-57.283 279.75 91.025 429.27zm299.3-291.39c24.084 53.787 94.346 98.178 163.64 63.719 42.362-21.064 58.268-50.087 72.319-92.911 16.22 69.395 21.439 81.387 8.3621 99.105-33.161 26.977-68.606 46.899-111.89 51.834-49.428 5.642-102.01-10.551-140.26-42.538-50.469-42.197-63.256-94.823-68.208-157.71 68.627-8.9182 61.838-8.5275 70.38-7.6604-5.6683 28.9-6.63 58.719 5.6525 86.164zm41.204-64.319c2.0403-10.774 9.2759-15.986 17.84-21.845 5.0204-1.2856 10.274-2.5022 15.475-1.3865 20.781 4.4438 35.353 41.616 2.6562 56.063-4.7708 1.4503-9.6582 1.6151-14.61 2.0771-6.5026-2.821-11.13-3.8463-15.502-9.5784-6.1305-8.0326-7.7404-15.433-5.8598-25.33zm204.26 228.98 17.882 43.536-5.5464 4.0908c-43.621 8.5371-87.194 19.779-131.92 19.927-183.89 0.6248-304.67-129.5-304.64-293.14 5.7697-5.6852 17.428-6.3247 25.978-6.949 10.864 8.4534-2.5895 37.005 28.172 107.47 57.782 132.35 205.72 199.95 370.07 125.06zm-899.75-29.559c217.56 618.62 201.01 580.36 287.21 664.6 131.38 125.29 70.458 67.131 273.66 261.24-13.44 196.29-11.536 182.49-15.348 191.47-10.129-5.0349-457.64-357.56-476.84-372.64-118.48-896.94-111.94-832.04-111.02-865 6.1979 6.2923 3.0251 2.1278 42.336 120.32zm97.936 955.84c493.66 384.36 451.73 349.21 456.59 357.07 2.9377 4.7549 4.3777 16.49 5.9659 22.212 17.162 61.884 43.223 99.453 77.977 153.51-0.5378-0.064-187.41-20.839-213.35-35.897-22.811-13.247 28.944 27.148-602.25-500.54l118.35-110.96 6.6141-1.1528c51.675 35.466 100.49 77.292 150.11 115.75zm511.97-166.11c-28.154-30.822-289.49-278.5-298.68-299.1l-119.8-300.76c61.513 79.064 376.95 410.71 383.46 415.99 32.183-16.862 59.686-43.138 88.74-64.776 257.53-187.47 195.46-145.34 441.82-294.05-118.71 136.67-23.156 31.171-495.55 542.7zm72.59 177.94c20.51-99.901-36.598-5.4585 433.36-675.83l-133.46 565.08c18.376 23.721 42.298 45.13 63.341 66.555 234.45 228.04 330.55 324.18 435.49 392.69l9.0049 146.33c-284.25 156.7-289.78 164.58-331.87 170.88-78.221 6.9238-72.712 7.0159-78.939 6.0242-23.194-3.6865-226.36-52.838-231.88-57.28-19.274-15.518-37.459-46.15-52.684-66.29-120.52-159.43-179.67-220.33-112.37-548.16zm863.14-1469.5 360.38 238.7c-2.0767 5.9501-117.7 221.6-117.99 222.13l-69.142-62.735c-185.44-191.66-168.29-170.67-171.28-177.19-1.645-3.5888-1.0581 9.7558-1.9763-220.89zm219.86 511.11c-3.6477 11.783 23.829-56.439-244.87 529.1-8.5825-6.3193 5.7617 0.4495-245.73-525.46l246.73-241.79zm-265.25-290.47-244.77 245.07c-14.694-13.845-9.9777-9.2909-126.49-219.61l369.15-249.79 4.0745 1.4504-1.9656 222.89zm18.169 909.84c11.448-15.673 4.7463-1.6106 272.46-591.93 70.962 138.18 81.306 249.38 197.91 756.41-43.077-29.756-86.906-53.49-120.25-92.709l-2.8584 2.3533c-1.8823 34.921 3.3574 25.955-342.19 160.4-29.452-5.1902-59.612-20.161-87.704-30.69-271.55-104.66-260.45-88.783-268.76-133.7-32.502 37.873-82.434 68.702-124.98 94.717l98.818-382.77c42.053-174.12 32.98-195.37 110.94-371.77 6.0855 9.9005 243.39 545.39 266.61 589.69zm-332.56 192.19c-54.11 38.195-48.756 37.526-62.013 112l-81.165-79.327 105.1-65.44c2.0507-0.7808 3.9738-2.0347 6.1466-2.3481 17.412-2.4827 322.87 115.66 353.85 127.98 17.233 7.1216 7.7703 7.2798 27.609-0.5366 65.19-25.027 1.8613-1.2524 339.26-126.93l112.37 64.632c-4.3535 9.6245-13.138 16.554-73.839 72.782-1.8755-19.374-4.7017-50.852-15.38-67.464-6.741-10.494-38.689-35.74-43.648-37.23-0.5334-0.1597-329.5 123.47-331.97 123.42-5.9215-0.1336 26.03 10.726-336.33-121.54zm373.65 495.66c0.2444-0.6482 109.22-91.694 121.68-103.17 268.29-261.81 186.86-181.87 365.49-358.51l-109.59-553.7c453.73 659.81 422.69 612.49 423.67 616.62 5.8064 24.475 4.3721 55.956 6.3271 81.393l15.353 221.67c1.4392 26.016 9.6375 59.138 1.8484 74.604-68.374 136.11-173.41 263.13-182.35 268.72-15.981 9.9827-16.163 9.137-174.42 64.887-71.118 23.355-58.205 18.709-121.25 2.0188-170.13-47.064-254.57-95.628-358.4-166.99 13.02-160.42 9.5723-142.16 11.645-147.55zm828.16-1457.1c15.741-32.906 11.99-57.242 0.3398-90.302 22.95-0.2338 46.304 2.1302 68.808 6.5502 1.7703 109.76-60.237 184.89-150.19 204.45-57.418 12.49-106.42-7.252-153.98-38.325l-16.926-14.365c-1.9868-24.145 8.3247-53.614 11.146-78.216 67.742 111.66 194.4 107.22 240.81 10.205zm-94.005-68.478c5.3125-10.96 16.017-15.3 26.945-18.334l11.252 1.631c31 6.4199 40.767 49.426-1.3281 66.71l-14.609 0.3029c-8.6968-4.1384-15.683-8.8933-20.804-17.351-4.8076-7.9424-5.4399-24.751-1.4555-32.959zm-152.71 240.25c182.76 61.284 298.18-1.7668 391.75-167.39 14.28-25.277 28.194-50.108 37.134-77.813l35.748-0.8872c-36.162 112.13-66.502 178.77-163.78 246.48-91.641 63.788-196.88 67.937-303.49 49.051-7.1877-1.4771-14.423-2.2791-20.56-6.5664l23.195-42.872zm55.441 79.815c106.41 9.5256 205.4-15.9 287.79-84.91 75.252-55.877 117.83-155.35 141.04-242.87l94.388-14.349c-0.1274 25.267 6.2527 122.57-5.4136 138.41-78.532 106.64-136.69 184.19-411.31 268.62l-192.36 55.516c15.958 3.1399 31.626 1.2327 47.754 0.7705 177.9-2.238 258.99 4.0374 359.75-9.0208 56.257-7.2898 150.32-27.72 165.53-42.043 2.4541-2.3164 5.3816-13.319 7.1184-17.223 102.85-215.76 87.411-193.09 86.796-352.9-1.1189-91.145-3.1348-78.574-1.8274-87.194 1.5354-10.078 105.58-136.11 118.17-152.36 18.977 23.346 24.815 33.835 144.57 224.88-468.19 567.04-320.52 395.16-530.22 600.48-34.701 1.5669-79.295-13.17-113.71-21.049-153.17-35.047-306.14-71.501-450.95-133.81l158.88-144.09 94.021 13.143zm879.01-224.1-99.966 861.33c-22.198 23.567-11.32 14.668-491.88 359.09l-2.6348-125.67c-0.4412-16.225-4.0166-43.749 0.2546-58.624 5.0198-17.49 353.88-353.22 366.77-374.86 20.077-33.697 199.63-593 227.46-661.27zm-615.38 716.82c49.873-46.712 168.24-183.93 273.03-302.81l124.38-154.95c-4.5667 12.787-107.66 303.67-113.17 313.68-5.5889 10.149 19.756-18.161-320.15 337.53-457.33-517.23-363.76-409.04-480.7-550.77 187.09 95.248 346.16 236.58 516.62 357.32zm31.631 682.5c13.085-16.322 594.99-432.46 595.53-432.84l127.48 101.89c-503.07 435.17-577.19 500.98-585.84 504.53-17.533 7.2029 48.544-9.3655-249.21 28.868 94.492-138.05 95.137-181.36 112.04-202.44zm621.41-462.63c60.34-709.94 58.187-799.77 61.434-808.13 2.1836-5.6205 16.076-14.992 20.948-20.018 48.911-55.704 4.2046-2.7849 236.93-282.2-2.6323 69.964-120.41 736.32-201.22 1203.7-76.783-57.989-49.954-36.656-118.09-93.314zm330.54-1175.8-145.62 173.61c-42.482 50.097-85.905 93.703-122.02 149.02l-0.2339-74.944c0.8765-24.4 9.5149-94.882-0.1541-113.52l-131.72-243.02 399.76 108.85zm-311.96-450.44-169.37-177.6 264.24 76.745c-58.484 62.074-36.671 38.88-94.871 100.86zm219.01-229.79c-7.2012 11.912-8.5239 12.078-96.959 102.16l-297.62-126.76c255.07-6.665 283.14-4.3639 348.63-15.481-6.7993-2.4561 21.93 3.1731-339.58-60.749l318.55-98.638-312.51 27.885 421.85-127.57 3.4053 2.6562c-45.815 310.67-40.56 287.9-45.757 296.5zm10.344-438.98c14.636 34.303 33.336 70.667 42.782 106.62-1.3921 5.7214-2.375 11.013-5.9658 15.842-4.564 6.1414-227.19 25.215-473.13 63.963l376.77-323.17c21.909 43.876 40.242 91.509 59.543 136.74zm-71.714-161.19c-375.64 327.42-308.88 269.06-378.09 330.06l290.87-535.57 87.221 205.51zm-289.69-105.39 0.6748 1.8326c-6.792 16.843 23.208-41.428-304.49 526.65l-98.165-100.45c-31.572-33.841-72.277-67.246-98.526-105.12l500.51-322.91zm-1481 75.576c63.612 41.901 425.67 362.76 749.2 646.41l-1.0466 3.1183c-57.08-46.865-26.976-25.396-741.79-494.01l-8.6118-1.785-746.4 488.65-3.6442-0.7704 752.29-641.62zm-976.6 253.43c-122.68 125.37-78.06 79.759-193.91 198.21l-324.12-545.2c30.47 25.504 21.508 17.013 518.03 347zm-715.8-413.62 331.74 537.02c-56.595-52.195 14.742 8.9823-409.3-346.62l77.563-190.4zm-183.84 441.72c0.402-2.4802 96.446-228.12 96.81-228.98l378.87 327.93c-20.761 2.3907-58.124-8.176-79.263-11.863l-391.86-52.982c-1.211-8.7658-5.8754-25.946-4.5528-34.101zm37.252 349.34c-1.1368-2.1624-1.1527-12.006-1.4079-14.482-5.8021-54.129-0.2327-2.6838-30.749-283.59l412.01 130.48c-34.457 1.3174-71.682-5.7269-106.34-8.6698-173.28-7.8256-182.75-9.0297-204.23-5.4244 27.779 10.843 64.659 14.004 94.138 20.209l252.48 52.514c-5.2516 4.8216-66.882 10.975-368.99 74.402l334.49 3.6125-278.42 136.65c-110.56-113.24-100.39-100.78-102.98-105.7zm127 132.19 249.84-70.965 4.3083 1.4503-158.27 169.87c-54.894-55.817-33.126-33.111-95.881-100.35zm411.56-70.731c43.685-39.993 95.333-70.21 137.32-111.23 210.77-214.44 152.24-154 265.9-273.96 44.127-45.526 34.822-38.978 81.08-50.352 108.58-26.534 37.128-8.6964 308.65-77.35l3.5754 0.3719 1.6096 2.2844-556.71 721.04 1059.6-556.84 1068.8 565.78c-38.861-76.868-484.19-632.32-548.59-727.08 351.17 84.233 326.77 73.45 341.26 81.568 11.129 6.2306 3.562 0.5106 120.31 123.43 285.16 296.09 174.39 185.13 486.56 484.96 146.51 128.89 120 100.68 411.07 387.12-11.98-0.6533-30.016-9.7485-41.953-13.34-330.2-94.524-298.39-80.714-305.4-85.659-7.5305-5.3113-413.83-546.6-453-579.11 2.8911 13.765 16.782 26.918 36.741 78.54 212.38 579.01 203.18 550.34 200.76 555.44-5.7695 12.166-122.58 150.88-131.29 154.63-8.978 3.8514-35.052 2.0664-45.629 2.5872-178.13 8.6868-379.99-29.862-412.33-22.642-41.273 9.2175-84.729 34.728-122.91 53.296-16.453 8.0005-37.379 15.9-51.76 26.748-11.619 8.7488-55.863 244.25-94.717 361.93-11.268 34.122-24.586 67.358-44.652 97.299l-116.21-230.38c180.21-276.46 166.11-254.57 168.58-259.14 344.12-143.02 296.07-128.12 338.22-141.45 203.82-64.43 398.5-38.275 481.33-34.978-52.951-151.18-14.316-33.942-196.06-602.44 43.534 292.66 30.277 211.49 54.289 341.09 3.2144 16.506 8.957 34.786 9.2334 51.404l-691.56 307.02-459.06-417.38-465.64 419-689.94-301.92 47.489-326.47c-15.071 39.446-31.253 124.29-73.605 232.15-135.06 317.79-113.33 253.03-128.48 297.16 205.34 2.1875 125.42-0.8777 351.15 14.796 117.26 11.977 96.656 7.0647 232.74 61.694 245.43 98.668 200.8 81.081 245.84 97.91 18.309 6.4056 9.7144-0.7166 23.848 21.564 33.798 52.34 1.4469 3.3475 163.09 246.16l-109.36 222.76c-17.313-25.33-28.815-56.95-40.62-85.138-77.443-185-68.597-240.29-102.3-360.29-46.973-37.153-216.04-99.777-225.75-99.594-3.967 0.073-95.456 23.288-214.07 31.854-39.466 2.8475-86.445 8.0645-125.47 2.5074-77.616-11.06-132.49-81.494-184.82-133.13-15.874-15.666-33.824-29.24-50.724-43.802l255.8-577.2c-21.144 22.302-44.769 40.731-68.048 60.648l-76.506 67.336c-15.528 13.419-37.034 27.737-49.077 44.041-0.3947 0.5343-212.71 348.7-214.56 349.95-6.1503 4.1641-264.64 74.558-376.33 117.39 52.045-61.759 467.37-469.29 572.27-572.58zm-225.73 501.8 1.6258 0.4779c5.0308 3.4108-31.737 63.06-38.277 74.572-112.3 199.41-101.89 175.63-102.72 179.64-1.6841 8.1069 3.5914 28.55 4.3511 37.767l7.4587 123.74c-219.16-253.7-231.15-255.61-253.99-295.11l381.55-121.09zm-157.91 435.66c9.626 10.561 30.818 26.759 37.145 38.484 0.287 0.5334-4.364-43.755 60.212 818.18-71.298 67.31-42.965 40.301-121.7 115.9l-205.18-1238.2c26.319 25.732-14.509-15.048 229.53 265.65zm-263.08 92.082 43.956 290.04c-280.14 231.97-238.67 196.54-261.97 219.49l218.01-509.53zm-263.58 618.05c15.905-41.228 12.322-34.322 50.824-65.435 81.088-65.767 28.783-22.971 258.27-211.77l6.8268-0.1274 46.74 299.2c-339.8-19.322-268.55-14.856-362.66-21.872zm177.35 389.06c-95.556-204.01-125.59-256.03-160.73-347.59l278.27 20.815c11.31 0.7864 68.67 1.0359 74.742 4.521 9.0258 5.1797 37.198 253.55 54.804 278.81 5.998 8.6064 16.702 16.192 24.613 23.147 58.725 52.425 3.0541 3.4155 297.51 261.01l-547.14-200.01c-9.541-11.252-15.688-27.392-22.063-40.705zm310.22 637.09-262.59-542.5 388.36 139.03c-114.86 371.2-87.925 284.92-125.77 403.47zm158.86-390.57c223.79 80.434 172.37 54.655 248.12 126.2-275.64 205.22-193.2 142.06-371.31 283.35zm-109.57 453.16 391.86-300.13 101.76 83.327c218.46 717.43 208.78 680.4 208.25 681.75-294.41-192.47-139.88-90.224-701.86-464.95zm556.4-186.07c110.92 22.156 168.55 37.834 344.57 43.18 74.79 58.43 75.97 83.612 108.73 140.06-9.7328 19.8-25.134 38.654-35.796 58.688-157.14 296.33-108.6 201.55-217.09 421.9l-200.41-663.83zm1081.6 1276.1-855.53-570.24c2.842-12.505 12.771-25.925 19.051-37.071 65.867-120.52 186.69-357.9 198.6-385.22l175.81 359.01c5.7479-29.06 0.4303-68.25-4.7124-97.267 62.778 109.53 138.17 209.66 227.18 299.15l22.764-99.164c15.275 28.298 35.859 144.27 47.207 183.93 4.6509-11.726 5.0718-18.586 21.574-138.97 44.264 51.564 100.51 97.692 150.49 143.83-0.032 267.78 0.595 192.39-2.428 342.02zm-288.42-743.59c-14.764 42.952-1.918 103.33 9.0151 146.05-107.72-188.78-110.25-183.56-161.59-325.36l-4.2234-0.3721c-15.895 20.746-18.402 63.155-22.164 88.326l-96.231-330.58 84.57 13.403c69.014 13.714 47.722 16.536 134.28 2.1467 95.422-15.876 38.888 5.0703 358.15-153.94 2.0081 26.77 5.3125 59.006 2.2737 85.489-301.46 115.88-333.26 127.03-375.14 148.72 71.303-2.1201 356.68-53.768 391.76-54.836 35.806-1.0891 75.879 9.5359 111.67 14.041 147.34 15.03 222.48 24.182 282.56 22.786-42.734-18.319-344.17-117.67-366.06-131.95l-6.4866-87.067c118.53 66.53 159.98 95.664 365.27 155.33 17.165 4.9888 43.058 15.895 60.579 14.61 47.744-3.501 100.96-24.879 147.2-38.468-20.48 121.42-49.768 243.58-103.95 354.51-1.0039-24.438-3.7241-43.265-13.302-65.896-31.2 38.011-47.005 93.718-68.638 137.51l-83.694 151.87 30.792-168.44c-19.189 11.883-13.001 8.6919-158.68 145.86l-191.98 162.14c-209.18-173.34-266.27-216-326-285.89zm360.04 744.23c7.6172-397.28-16.081-329.55 21.208-364.14 80.987-73.02 51.803-45.854 126.87-118.66l29.559 146.45 39.679-202.05c3.772 15.354 20.326 94.93 26.988 101.35 25.941-22.812 48.025-51.547 69.647-78.392 97.519-121.11 71.045-90.21 108.05-155.69l-8.2185 82.19c105.71-106.8 161.14-239.1 209.46-378.63l254.51 385.37-877.76 582.19zm638.67-1019.4c-2.3547-9.4106 31.943-92.47 47.17-194.6 9.2844-9.6421 284.4-52.076 401.66-56.328l-195.64 639.01c-98.368-147.47-253.06-387.55-253.19-388.08zm857.78 28.358c-392.77 262.28-266.05 179.05-563.47 370.9 218.39-710.31 195.7-650.05 208.13-669 7.6396-11.65 24.906-22.753 35.881-31.795l71.278-59.851 6.1255-2.1089c14.4 4.9187-15.355-16.228 383.34 290.78-39.69 39.504-94.951 69.636-141.29 101.07zm-209.25-422.22c83.623-67.364 13.279-36.31 219.79-117.44 5.2874 9.3618 132.74 362.41 145.69 398.14-154.35-119.13-73.851-57.272-365.48-280.7zm405.09 262.41c-54.48-136.86-20.372-46.279-146.58-393.48l396.81-155.21 7.23-0.1433c-0.8871 6.6553 14.84-29.386-257.46 548.83zm288.75-613.13c-4.2021 4.4092-24.81 11.257-30.866 14.02-134.95 61.563-224.66 89.188-499.47 197.2 322.88-302.73 307.16-286.63 312.27-296.93 1.9722-3.9766 19.749-118.63 43.488-269.67 341.43-15.014 275.31-12.264 349.1-14.875-184.63 390.66-174.01 369.73-174.52 370.27zm-166.17-397.24 42.272-302.34c248.25 208.58 194.58 164.39 269.4 223.61 35.533 28.353 26.165 18.44 45.433 61.726-80.621 4.9994-11.869 1.5776-357.11 17z" fill="#0f0"/>
 </g>
 <g fill="#580058">
  <g stroke-width=".26458">
   <ellipse cx="52.846" cy="90.34" rx=".29523" ry="34.247"/>
   <path d="m135.05 120.12c-0.0119 0.0368-0.0235 0.0735-0.0346 0.11058a3.2475 1.1809 0 0 0 0.0357 0.0196c-3.3e-4 -0.0435-6.7e-4 -0.0868-1e-3 -0.13022z"/>
   <rect x="116.32" y="128.13" width="4.7237" height="1.7714"/>
   <path d="m109.23 125.58a1.4761 2.3618 0 0 1-0.70299 2.2052 1.4761 2.3618 0 0 1-1.5472-0.0101 1.4761 2.3618 0 0 1-0.69169-2.2143"/>
  </g>
  <text x="58.455269" y="64.950294" font-size="4.5861px" stroke="#00ff00" stroke-width="3.172" xml:space="preserve"><tspan x="58.455269" y="64.950294" font-size="4.5861px" stroke-width="3.172"/></text>
  <text x="49.00795" y="24.208746" font-family="Candara" font-size="14.111px" stroke="#00ff00" stroke-width="1.372" xml:space="preserve"><tspan x="49.00795" y="24.208746" font-family="Candara" stroke-width="1.372">ELIGRESA</tspan></text>
 </g>
 <g fill="#0f0">
  <path d="m78.022 52.973-5.6001 8.4652c9.14-7.8417 8.1891-7.0344 8.4176-7.202 0.22427 0.0579-0.03515-0.14589 6.9742 5.8656l1.563 1.4482-5.4767-8.559c3.9349 0.9691 12.384 3.0879 13.675 3.2574-1.2355-0.72872-13.353-5.3145-16.654-6.5845l-17.069 6.6089c1.7249-0.20677 12.308-2.8266 14.17-3.2997z" stroke-width=".016252"/>
  <g stroke-width=".020881">
   <path d="m84.055 103.11c0.4394-0.068 0.87679-0.18116 1.1537-0.56408 0.07687-0.10627 0.06445-0.13355 0.06223-0.26546l-0.11093-0.10327-0.32537 0.0235c-0.42574 0.17916-0.98073 0.35997-1.3144 0.69133l0.03128 0.12867c0.1665 0.0859 0.32115 0.0824 0.50352 0.0893z"/>
   <path d="m84.032 99.49c0.07654 0.0395 0.14897 0.0495 0.23328 0.0599 0.42975-0.10482 0.9469-0.28773 1.1792-0.69642 0.04937-0.0868 0.02308-0.18935 0.01953-0.28552-0.14765-0.12879-0.20933-0.0912-0.40001-0.0842-0.38682 0.15419-1.0471 0.37993-1.2252 0.7775 0.0477 0.14698 0.04859 0.15397 0.19324 0.22873z"/>
   <path d="m87.436 98.087c0.47667 0.0397 0.91362-0.17106 1.2693-0.4811 0.39991-0.34879 0.38584-0.58585 0.29574-1.1141-0.12013-0.0666-0.05657-0.0566-0.19035-0.0311-0.55731 0.34553-1.2114 0.76054-1.652 1.2451l-0.03216 0.14155c0.10305 0.12558 0.15153 0.18114 0.3095 0.23961z"/>
   <path d="m87.158 102.22c0.15918 0.11015 0.43397 0.12113 0.62421 0.14898 0.53691 0.0157 0.95866 0.0121 1.3748-0.37905 0.23539-0.2213 0.339-0.42653 0.34345-0.75476 0.0023-0.17837-0.01665-0.35986-0.10838-0.51538-0.17959-0.0977-0.30818-0.0889-0.47577-0.0393-0.44217 0.21644-0.84705 0.51593-1.2527 0.79317-0.21831 0.1492-0.48487 0.28598-0.58283 0.53801 0.01486 0.0856 4.42e-4 0.15508 0.07731 0.20833z"/>
   <path d="m92.781 98.736c-0.10782-0.097-0.28308-0.1917-0.4325-0.17894l-0.04748 0.0109c-0.65071 0.22698-1.3995 0.69796-1.73 1.3312-0.10195 0.19546-0.1268 0.34533-0.05436 0.55643 0.11065 0.32238 0.36562 0.38981 0.6637 0.50306 0.50362-0.0152 0.79902-0.10749 1.1552-0.48731 0.33351-0.3555 0.84835-1.3729 0.44539-1.7353z"/>
   <path d="m90.708 96.349c0.1563 0.0172 0.30474 0.0305 0.46257 0.0248 0.59247-0.0816 1.0311-0.19246 1.4227-0.69166 0.22973-0.29285 0.29496-0.72016 0.25015-1.0817-0.03838-0.30971-0.16695-0.52992-0.36107-0.76775-0.12602-0.0595-0.21731-0.11427-0.3613-0.0906-0.63718 0.25082-1.377 1.0252-1.6228 1.6602-0.08476 0.21887-0.06834 0.53856 0.03228 0.75066 0.04226 0.0891 0.1015 0.13689 0.17749 0.19602z"/>
  </g>
  <g stroke-width=".026364">
   <path d="m78.089 101.16 0.16555-0.13334c-0.0317-0.25701-0.10575-0.30379-0.30562-0.46261-0.35982-0.28616-0.8681-0.67496-1.3406-0.69288l-0.20002 0.14216c-0.0359 0.2493-0.058 0.386 0.10477 0.59106 0.47925 0.60425 1.0332 0.55165 1.576 0.55563z"/>
   <path d="m77.084 104.71c-0.0153 0.27661 7e-3 0.42101 0.20114 0.62874 0.37485 0.40097 1.1124 0.49525 1.6433 0.37577l0.22775-0.14258c-0.064-0.44588-1.3718-0.98166-1.8558-1.002l-0.2164 0.14006z"/>
   <path d="m72.346 104.59c0.50889 0.44055 1.3207 0.30068 1.9796 0.19651l0.2199-0.11373c0.11475-0.47796-0.21341-0.65371-0.73419-1.0138-0.4356-0.30114-0.89695-0.67931-1.3947-0.86531l-0.20085 0.0248c-0.2762 0.30604-0.34427 0.44553-0.33293 0.87638 0.01 0.37466 0.18278 0.65238 0.46319 0.89512z"/>
   <path d="m74.377 99.866c0.53894-0.41737 0.52201-0.86082 0.24708-1.1866-0.31796-0.37648-0.85424-0.62536-1.2534-0.91012-0.21332-0.15211-0.54917-0.47242-0.81809-0.49581l-0.0863 0.0109c-1.1678 1.375 0.48906 3.1508 1.9107 2.5816z"/>
   <path d="m69.454 103.12 0.652 0.0796 0.2451-8e-3c0.25744-0.35057 0.33056-0.67791 0.26165-1.1153-0.0913-0.58028-0.98002-1.2804-1.4564-1.5833-0.31263-0.19889-0.42062-0.23614-0.77496-0.20253-0.72607 0.45033-0.61487 1.3607-0.16625 2.0747 0.2535 0.40353 0.78307 0.66839 1.2388 0.75508z"/>
   <path d="m69.763 97.651c0.29146-0.0531 0.66475-0.0902 0.86027-0.34244 0.57946-0.74738-0.63965-2.5048-1.4282-3.0092l-0.26192 0.0433c-0.48418 0.24089-0.74079 0.51025-0.90844 1.0307-0.14119 0.43813-0.0718 1.05 0.14371 1.4492 0.3512 0.65036 0.9798 0.73021 1.5946 0.82845z"/>
  </g>
 </g>
</svg>
